<?xml version="1.0" encoding="utf-8"?>
<!-- Generator: Adobe Illustrator 24.0.1, SVG Export Plug-In . SVG Version: 6.00 Build 0)  -->
<svg version="1.1" id="Layer_1" xmlns="http://www.w3.org/2000/svg" xmlns:xlink="http://www.w3.org/1999/xlink" x="0px" y="0px"
	 viewBox="0 0 1125 1125" style="enable-background:new 0 0 1125 1125;" xml:space="preserve">
<style type="text/css">
	.st0{fill:url(#SVGID_1_);}
	.st1{opacity:0.25;fill:url(#SVGID_2_);}
	.st2{opacity:0.71;fill:url(#SVGID_3_);}
	.st3{opacity:0.71;fill:url(#SVGID_4_);}
	.st4{fill:url(#SVGID_5_);}
	.st5{opacity:0.25;fill:url(#SVGID_6_);}
	.st6{opacity:0.71;fill:url(#SVGID_7_);}
	.st7{fill:url(#SVGID_8_);}
	.st8{opacity:0.28;fill:url(#SVGID_9_);}
	.st9{fill:url(#SVGID_10_);}
	.st10{opacity:0.28;fill:url(#SVGID_11_);}
	.st11{opacity:0.28;}
	.st12{fill:url(#SVGID_12_);}
	.st13{fill:url(#SVGID_13_);}
	.st14{opacity:0.28;fill:url(#SVGID_14_);}
	.st15{fill:url(#SVGID_15_);}
</style>
<g>
	<g>
		<linearGradient id="SVGID_1_" gradientUnits="userSpaceOnUse" x1="181.9852" y1="685.6869" x2="895.866" y2="-295.2753">
			<stop  offset="3.084940e-03" style="stop-color:#DC84FF"/>
			<stop  offset="8.423955e-03" style="stop-color:#DB83FF"/>
			<stop  offset="0.4834" style="stop-color:#9648E7"/>
			<stop  offset="0.8261" style="stop-color:#6B23D9"/>
			<stop  offset="1" style="stop-color:#5A15D3"/>
		</linearGradient>
		<path class="st0" d="M60.04,416.28c102.64-197.66,367-387.44,678.8-414.84c212.15-14.95,128.34,190.14,128.34,190.14
			C521,136.11,56.84,618.16,394.47,653.62C200.64,787.73-96.47,717.68,60.04,416.28z"/>
		<linearGradient id="SVGID_2_" gradientUnits="userSpaceOnUse" x1="266.5431" y1="671.6104" x2="922.36" y2="-229.5648">
			<stop  offset="3.084940e-03" style="stop-color:#DC84FF"/>
			<stop  offset="8.423955e-03" style="stop-color:#DB83FF"/>
			<stop  offset="0.4834" style="stop-color:#9648E7"/>
			<stop  offset="0.8261" style="stop-color:#6B23D9"/>
			<stop  offset="1" style="stop-color:#5A15D3"/>
		</linearGradient>
		<path class="st1" d="M867.18,191.58c0,0,43.73-58.58,39.87-106.52c-97.9-15.28-512.58-7.55-725.31,365.68
			c-57.87,101.54-54.31,244.77,72.04,263.52c47.18-9.37,96.06-29.75,140.69-60.64C61.86,620.15,509.47,140.33,867.18,191.58z"/>
		<linearGradient id="SVGID_3_" gradientUnits="userSpaceOnUse" x1="4.8174" y1="532.8905" x2="454.9427" y2="798.8013">
			<stop  offset="0" style="stop-color:#DC84FF;stop-opacity:0"/>
			<stop  offset="0.4999" style="stop-color:#8D40E4;stop-opacity:0.4999"/>
			<stop  offset="1" style="stop-color:#4200CB"/>
		</linearGradient>
		<path class="st2" d="M35.21,487.26c-63.97,246.23,181.36,289.45,359.26,166.36c-27.77-2.68-50.42-8.6-68.53-17.07
			C296.19,650.3-16.22,701.26,35.21,487.26z"/>
		<linearGradient id="SVGID_4_" gradientUnits="userSpaceOnUse" x1="812.7637" y1="212.4605" x2="821.334" y2="4.8695">
			<stop  offset="0" style="stop-color:#DC84FF;stop-opacity:0"/>
			<stop  offset="0.4999" style="stop-color:#8D40E4;stop-opacity:0.4999"/>
			<stop  offset="1" style="stop-color:#4200CB"/>
		</linearGradient>
		<path class="st3" d="M754.93,0.74c140.97,40.83,60.35,160.3,35.72,184.41c25.36,0.09,50.92,2.15,76.53,6.43
			C867.18,191.58,946.59-2.83,754.93,0.74z"/>
		<linearGradient id="SVGID_5_" gradientUnits="userSpaceOnUse" x1="508.7104" y1="185.1641" x2="320.3131" y2="677.6892">
			<stop  offset="3.084940e-03" style="stop-color:#FC84FF"/>
			<stop  offset="0.5798" style="stop-color:#8E36E0"/>
			<stop  offset="1" style="stop-color:#4200CB"/>
		</linearGradient>
		<path class="st4" d="M579.14,180.51c-253.46-3.74-453.13,343.06-14.21,220.72C388.48,403.1,404.99,267.96,579.14,180.51z"/>
		<linearGradient id="SVGID_6_" gradientUnits="userSpaceOnUse" x1="540.3009" y1="194.6597" x2="373.5168" y2="630.6819">
			<stop  offset="3.084940e-03" style="stop-color:#DC84FF"/>
			<stop  offset="8.423955e-03" style="stop-color:#DB83FF"/>
			<stop  offset="0.4834" style="stop-color:#9648E7"/>
			<stop  offset="0.8261" style="stop-color:#6B23D9"/>
			<stop  offset="1" style="stop-color:#5A15D3"/>
		</linearGradient>
		<path class="st5" d="M578,181.11c-179.15,44.56-293.49,242.5-89.05,237.93c22.86-4.19,48.13-10.05,75.99-17.82
			C388.87,403.1,404.95,268.58,578,181.11z"/>
		<linearGradient id="SVGID_7_" gradientUnits="userSpaceOnUse" x1="328.9646" y1="361.6302" x2="568.6998" y2="452.2764">
			<stop  offset="0" style="stop-color:#DC84FF;stop-opacity:0"/>
			<stop  offset="0.4999" style="stop-color:#8D40E4;stop-opacity:0.4999"/>
			<stop  offset="1" style="stop-color:#4200CB"/>
		</linearGradient>
		<path class="st6" d="M310.38,341.25c-21.23,68.07,41.22,119.44,254.55,59.98c-33.78,0.36-60.43-4.33-80.31-12.72
			C471.32,400.19,321.19,444.17,310.38,341.25z"/>
		<linearGradient id="SVGID_8_" gradientUnits="userSpaceOnUse" x1="427.0752" y1="946.7327" x2="838.2266" y2="584.0881">
			<stop  offset="0" style="stop-color:#6266FF"/>
			<stop  offset="0.4962" style="stop-color:#46B4F3"/>
			<stop  offset="0.9985" style="stop-color:#2BFFE8"/>
		</linearGradient>
		<path class="st7" d="M324.75,877.44c337.51-197.3,630.72-192.19,313.59,35.87C678.4,854.87,500.37,816.75,324.75,877.44z"/>
		<linearGradient id="SVGID_9_" gradientUnits="userSpaceOnUse" x1="427.0739" y1="946.7313" x2="838.2189" y2="584.0923">
			<stop  offset="0" style="stop-color:#6266FF"/>
			<stop  offset="0.4962" style="stop-color:#46B4F3"/>
			<stop  offset="0.9985" style="stop-color:#2BFFE8"/>
		</linearGradient>
		<path class="st8" d="M324.75,877.44c199.61-106.8,499.22-147.39,313.88,35.65C955.27,685.25,662.15,680.2,324.75,877.44z"/>
		<linearGradient id="SVGID_10_" gradientUnits="userSpaceOnUse" x1="235.091" y1="683.9126" x2="816.9135" y2="159.7909">
			<stop  offset="0" style="stop-color:#6266FF"/>
			<stop  offset="0.4962" style="stop-color:#46B4F3"/>
			<stop  offset="0.9985" style="stop-color:#2BFFE8"/>
		</linearGradient>
		<path class="st9" d="M312.28,335.65c-41.74,114.39,30.8,296.07,388.44,153.43C1096.1,331.4,1056.46-25.42,738.84,1.44
			c232.35-5.83,118.28,211.55-4.02,294.61C588.49,395.43,281.57,497.04,312.28,335.65z"/>
		<linearGradient id="SVGID_11_" gradientUnits="userSpaceOnUse" x1="293.1845" y1="584.0893" x2="849.9593" y2="82.5312">
			<stop  offset="0" style="stop-color:#6266FF"/>
			<stop  offset="0.4962" style="stop-color:#46B4F3"/>
			<stop  offset="0.9985" style="stop-color:#2BFFE8"/>
		</linearGradient>
		<path class="st10" d="M658.6,436.43C961.03,321.4,1060.38-10.53,738.84,1.44c232.35-5.83,118.28,211.55-4.02,294.61
			c-146.33,99.39-453.26,200.99-422.54,39.61c-11.81,32.36-14.46,70.11-4.1,104.38C358.15,492.88,463.39,510.68,658.6,436.43z"/>
		<g class="st11">
			<linearGradient id="SVGID_12_" gradientUnits="userSpaceOnUse" x1="397.9445" y1="539.6803" x2="921.9105" y2="67.6772">
				<stop  offset="0" style="stop-color:#6266FF"/>
				<stop  offset="0.4962" style="stop-color:#46B4F3"/>
				<stop  offset="0.9985" style="stop-color:#2BFFE8"/>
			</linearGradient>
			<path class="st12" d="M308.18,440.03c6.91,7.27,14.7,13.69,23.09,19.18c8.39,5.49,17.37,10.04,26.69,13.74
				c18.65,7.4,38.52,11.35,58.47,13.03c9.98,0.86,20.01,1.11,30.03,0.96c10.02-0.2,20.03-0.8,30-1.8
				c19.94-2.01,39.73-5.43,59.29-9.84c19.56-4.41,38.88-9.81,57.98-15.89c19.11-6.07,37.98-12.88,56.65-20.18
				c37.39-14.45,73.46-32.39,107.22-54.01c33.75-21.59,65.32-46.74,93.03-75.71c13.84-14.48,26.72-29.91,38.22-46.32
				c11.5-16.4,21.64-33.79,29.71-52.13c8.05-18.32,14.06-37.65,16.63-57.52c1.28-9.93,1.69-19.98,1.01-29.96
				c-0.68-9.98-2.5-19.9-5.54-29.43c-3.01-9.54-7.31-18.68-12.77-27.08c-5.44-8.4-12.02-16.06-19.44-22.8
				c-7.42-6.74-15.63-12.59-24.33-17.57c-8.7-4.99-17.87-9.12-27.28-12.59c9.42,3.43,18.61,7.53,27.34,12.48
				c8.73,4.95,16.97,10.77,24.43,17.49c7.46,6.72,14.09,14.37,19.58,22.78c5.51,8.4,9.86,17.56,12.93,27.13
				c3.07,9.57,4.91,19.53,5.6,29.55c0.7,10.03,0.3,20.11-0.97,30.08c-2.56,19.95-8.55,39.34-16.6,57.72
				c-8.07,18.4-18.21,35.84-29.71,52.3c-11.51,16.46-24.38,31.94-38.24,46.47c-27.73,29.06-59.3,54.34-93.11,75.96
				c-33.85,21.61-70,39.53-107.45,53.94c-18.7,7.28-37.59,14.07-56.73,20.12c-19.13,6.06-38.48,11.44-58.06,15.83
				c-19.58,4.38-39.4,7.78-59.37,9.77c-19.97,1.94-40.12,2.5-60.13,0.74c-19.97-1.77-39.87-5.8-58.52-13.28
				c-9.31-3.74-18.29-8.33-26.66-13.86C322.83,453.79,315.06,447.33,308.18,440.03z"/>
		</g>
		<linearGradient id="SVGID_13_" gradientUnits="userSpaceOnUse" x1="174.2888" y1="948.2674" x2="853.072" y2="323.6546">
			<stop  offset="0" style="stop-color:#6266FF"/>
			<stop  offset="0.4962" style="stop-color:#46B4F3"/>
			<stop  offset="0.9985" style="stop-color:#2BFFE8"/>
		</linearGradient>
		<path class="st13" d="M60.04,416.28c-158.61,292.78,1,543.27,431.68,343.02c373.74-173.78,430.37-66.17,369.9,23.42
			c-86.6,128.32-371.37,282.84-536.31,342.29c262.77-49.08,693.74-217.46,783.31-445.65c82.92-211.27-164.12-263.07-400.86-167.71
			C524.54,585.45-136.36,886.75,60.04,416.28z"/>
		<linearGradient id="SVGID_14_" gradientUnits="userSpaceOnUse" x1="174.2888" y1="948.2674" x2="853.0721" y2="323.6545">
			<stop  offset="0" style="stop-color:#6266FF"/>
			<stop  offset="0.4962" style="stop-color:#46B4F3"/>
			<stop  offset="0.9985" style="stop-color:#2BFFE8"/>
		</linearGradient>
		<path class="st14" d="M707.76,511.64c-183.21,73.8-844.11,375.93-647.72-95.37c-19.83,36.6-34.68,72.54-44.65,107.01
			C-81.2,969.08,479.64,707.47,644.44,626.18c281.61-138.91,436.76-51.14,342.72,109.32C894.82,893.03,638.08,1033.38,325.31,1125
			c262.77-49.08,693.74-217.46,783.31-445.65C1191.54,468.08,944.5,416.28,707.76,511.64z"/>
		<g class="st11">
			<linearGradient id="SVGID_15_" gradientUnits="userSpaceOnUse" x1="165.1622" y1="950.9586" x2="792.4322" y2="373.748">
				<stop  offset="0" style="stop-color:#6266FF"/>
				<stop  offset="0.4962" style="stop-color:#46B4F3"/>
				<stop  offset="0.9985" style="stop-color:#2BFFE8"/>
			</linearGradient>
			<path class="st15" d="M325.31,1125c43.27-12.74,86.2-26.63,128.68-41.76c42.47-15.16,84.55-31.47,125.91-49.46l15.5-6.77
				c5.18-2.23,10.27-4.64,15.41-6.95c5.12-2.35,10.28-4.63,15.37-7.05l15.28-7.25c2.54-1.22,5.1-2.39,7.63-3.65l7.58-3.75
				l15.15-7.51l15.02-7.76l7.51-3.88l7.44-4.01l14.88-8.03l14.73-8.31l7.36-4.16l7.28-4.3l14.55-8.61
				c9.56-5.97,19.24-11.75,28.63-17.99l7.09-4.6l3.55-2.3c1.18-0.77,2.33-1.58,3.5-2.37l13.97-9.53
				c18.45-12.96,36.54-26.42,53.97-40.72c17.36-14.37,34.13-29.47,49.98-45.49c3.9-4.07,7.87-8.07,11.7-12.2l11.28-12.58
				c3.63-4.3,7.19-8.67,10.79-13c1.84-2.14,3.46-4.44,5.19-6.67l5.1-6.73c6.66-9.08,13.01-18.4,18.82-28.05
				c5.94-9.56,11.2-19.55,15.77-29.83c4.52-10.3,8.36-20.93,10.87-31.9c2.5-10.95,3.88-22.21,3.23-33.43
				c-0.32-5.6-1.02-11.19-2.42-16.63c-1.37-5.43-3.16-10.78-5.66-15.8c-2.48-5.03-5.48-9.79-8.93-14.21
				c-3.48-4.4-7.48-8.36-11.76-11.98c-8.61-7.22-18.59-12.66-29.01-16.83c-10.48-4.05-21.43-6.86-32.53-8.66
				c-22.25-3.51-44.94-3.34-67.34-1.17c-11.21,1.08-22.37,2.69-33.44,4.75c-11.07,2.06-22.08,4.47-33,7.26
				c-21.82,5.61-43.32,12.48-64.43,20.36c-21.14,7.82-41.89,16.68-62.32,26.2c-10.23,4.74-20.31,9.77-30.45,14.71
				c-10.14,4.94-20.3,9.84-30.49,14.66c-40.77,19.31-82.03,37.59-123.91,54.37c-41.88,16.76-84.37,32.08-127.64,44.86
				c-21.63,6.39-43.47,12.13-65.51,16.93c-22.04,4.81-44.3,8.66-66.74,11.09c-11.22,1.2-22.48,2.01-33.76,2.36
				c-11.28,0.3-22.58,0.19-33.83-0.65c-5.63-0.38-11.24-1.01-16.84-1.74c-5.59-0.79-11.15-1.75-16.68-2.92
				c-5.51-1.22-10.99-2.61-16.38-4.28c-5.39-1.7-10.7-3.63-15.9-5.83c-10.35-4.5-20.27-10.08-29.18-17.04
				c-8.97-6.87-16.85-15.12-23.5-24.24c-3.29-4.59-6.29-9.38-8.97-14.35c-2.62-5-4.99-10.13-7.03-15.39
				c-1.98-5.28-3.81-10.63-5.22-16.1c-0.79-2.71-1.35-5.48-2.02-8.22l-0.83-4.15c-0.27-1.38-0.57-2.76-0.77-4.16
				c-3.8-22.26-4.06-45-2.35-67.47c1.73-22.5,5.44-44.8,10.17-66.84c-4.7,22.05-8.36,44.35-10.05,66.85
				c-1.67,22.47-1.36,45.19,2.47,67.42c0.21,1.39,0.51,2.77,0.78,4.15l0.84,4.14c0.68,2.73,1.23,5.5,2.03,8.2
				c1.41,5.46,3.25,10.79,5.24,16.06c2.04,5.25,4.42,10.36,7.04,15.35c2.68,4.95,5.68,9.73,8.97,14.3
				c6.65,9.08,14.52,17.29,23.47,24.12c8.89,6.91,18.79,12.46,29.12,16.92c20.76,8.84,43.21,13.08,65.64,14.68
				c11.24,0.83,22.52,0.94,33.78,0.63c11.26-0.36,22.51-1.18,33.71-2.38c22.41-2.44,44.65-6.3,66.67-11.12
				c22.03-4.81,43.84-10.56,65.46-16.96c43.24-12.81,85.7-28.15,127.55-44.92c41.85-16.8,83.09-35.11,123.83-54.43
				c10.19-4.83,20.34-9.73,30.47-14.68c10.13-4.94,20.22-9.99,30.46-14.74c20.44-9.55,41.21-18.42,62.37-26.27
				c21.13-7.91,42.66-14.79,64.52-20.43c10.93-2.8,21.96-5.23,33.06-7.3c11.1-2.07,22.28-3.7,33.52-4.78
				c22.46-2.16,45.23-2.32,67.58,1.22c11.15,1.81,22.16,4.65,32.72,8.73c10.49,4.2,20.55,9.7,29.25,17
				c4.32,3.66,8.36,7.67,11.88,12.12c3.49,4.47,6.53,9.29,9.03,14.38c4.92,10.22,7.6,21.47,8.14,32.78
				c0.65,11.32-0.76,22.66-3.28,33.67c-2.54,11.03-6.4,21.7-10.94,32.04c-4.59,10.32-9.88,20.33-15.84,29.92
				c-5.82,9.67-12.2,19-18.88,28.1l-5.12,6.74c-1.73,2.23-3.36,4.54-5.2,6.68c-3.61,4.34-7.18,8.71-10.82,13.02l-11.31,12.6
				c-3.84,4.13-7.82,8.13-11.72,12.21c-15.88,16.03-32.68,31.14-50.06,45.51c-17.45,14.3-35.57,27.76-54.04,40.72l-13.98,9.53
				c-1.17,0.79-2.32,1.6-3.5,2.37l-3.55,2.3l-7.1,4.6c-9.4,6.23-19.09,12.02-28.66,17.98l-14.56,8.61l-7.29,4.3l-7.37,4.15
				l-14.74,8.3l-14.89,8.03l-7.45,4.01l-7.52,3.88l-15.03,7.76l-15.16,7.5l-7.58,3.75c-2.53,1.25-5.09,2.43-7.63,3.64l-15.29,7.24
				c-5.09,2.42-10.26,4.69-15.38,7.04c-5.14,2.31-10.24,4.72-15.42,6.95l-15.51,6.76c-41.4,17.92-83.51,34.16-126.02,49.24
				C411.56,1098.53,368.6,1112.33,325.31,1125z"/>
		</g>
	</g>
</g>
</svg>
